# xmcd CD database file
#
# Track frame offsets:
#	150
#	47358
#	79074
#	111217
#	136697
#
# Disc length: 2362 seconds
#
# Revision: 0
# Processed by: cddbd v1.5.2PL0 Copyright (c) Steve Scherf et al.
# Submitted via: CDex 1.70beta3
#
DISCID=32093805
DTITLE=Lee Morgan - Blue Note Best Jazz Collection 07
DYEAR=2012
DGENRE=Jazz
TTITLE0=The Sidewinder
TTITLE1=Candy
TTITLE2=I Remember Clifford
TTITLE3=Somethin' Cute
TTITLE4=Cornbread
EXTD=YEAR: 2012
EXTT0=
EXTT1=
EXTT2=
EXTT3=
EXTT4=
PLAYORDER=
